# 3ds Max Wavefront OBJ Exporter v0.97b - (c)2007 guruware
# File Created: 29.03.2019 17:33:02

mtllib mid.mtl

#
# object Box001
#

v  -10.6878 0.0000 9.2991
v  -4.0212 0.0000 9.2991
v  2.6455 0.0000 9.2991
v  9.3122 0.0000 9.2991
v  -10.6878 0.0000 2.6325
v  -4.0212 0.0000 2.6325
v  2.6455 0.0000 2.6325
v  9.3122 0.0000 2.6325
v  -10.6878 0.0000 -4.0342
v  -4.0212 0.0000 -4.0342
v  2.6455 0.0000 -4.0342
v  9.3122 0.0000 -4.0342
v  -10.6878 0.0000 -10.7009
v  -4.0212 0.0000 -10.7009
v  2.6455 0.0000 -10.7009
v  9.3122 0.0000 -10.7009
v  -10.6878 1.0000 9.2991
v  -4.0212 1.0000 9.2991
v  2.6455 1.0000 9.2991
v  9.3122 1.0000 9.2991
v  -10.6878 1.0000 2.6325
v  -4.0212 1.0000 2.6325
v  2.6455 1.0000 2.6325
v  9.3122 1.0000 2.6325
v  -10.6878 1.0000 -4.0342
v  -4.0212 1.0000 -4.0342
v  2.6455 1.0000 -4.0342
v  9.3122 1.0000 -4.0342
v  -10.6878 1.0000 -10.7009
v  -4.0212 1.0000 -10.7009
v  2.6455 1.0000 -10.7009
v  9.3122 1.0000 -10.7009
# 32 vertices

vn 0.0000 -1.0000 -0.0000
vn 0.0000 -1.0000 -0.0000
vn 0.0000 -1.0000 -0.0000
vn 0.0000 -1.0000 -0.0000
vn 0.0000 -1.0000 -0.0000
vn 0.0000 -1.0000 -0.0000
vn 0.0000 -1.0000 -0.0000
vn 0.0000 -1.0000 -0.0000
vn 0.0000 -1.0000 -0.0000
vn 0.0000 -1.0000 -0.0000
vn 0.0000 -1.0000 -0.0000
vn 0.0000 -1.0000 -0.0000
vn 0.0000 -1.0000 -0.0000
vn 0.0000 -1.0000 -0.0000
vn 0.0000 -1.0000 -0.0000
vn 0.0000 -1.0000 -0.0000
vn 0.0000 -1.0000 -0.0000
vn 0.0000 -1.0000 -0.0000
vn 0.0000 -1.0000 -0.0000
vn 0.0000 -1.0000 -0.0000
vn 0.0000 -1.0000 -0.0000
vn 0.0000 -1.0000 -0.0000
vn 0.0000 -1.0000 -0.0000
vn 0.0000 -1.0000 -0.0000
vn 0.0000 -1.0000 -0.0000
vn 0.0000 -1.0000 -0.0000
vn 0.0000 -1.0000 -0.0000
vn 0.0000 -1.0000 -0.0000
vn 0.0000 -1.0000 -0.0000
vn 0.0000 -1.0000 -0.0000
vn 0.0000 -1.0000 -0.0000
vn 0.0000 -1.0000 -0.0000
vn 0.0000 -1.0000 -0.0000
vn 0.0000 -1.0000 -0.0000
vn 0.0000 -1.0000 -0.0000
vn 0.0000 -1.0000 -0.0000
vn 0.0000 -1.0000 -0.0000
vn 0.0000 -1.0000 -0.0000
vn 0.0000 -1.0000 -0.0000
vn 0.0000 -1.0000 -0.0000
vn 0.0000 -1.0000 -0.0000
vn 0.0000 -1.0000 -0.0000
vn 0.0000 -1.0000 -0.0000
vn 0.0000 -1.0000 -0.0000
vn 0.0000 -1.0000 -0.0000
vn 0.0000 -1.0000 -0.0000
vn 0.0000 -1.0000 -0.0000
vn 0.0000 -1.0000 -0.0000
vn 0.0000 -1.0000 -0.0000
vn 0.0000 -1.0000 -0.0000
vn 0.0000 -1.0000 -0.0000
vn 0.0000 -1.0000 -0.0000
vn 0.0000 -1.0000 -0.0000
vn 0.0000 -1.0000 -0.0000
vn 0.0000 1.0000 -0.0000
vn 0.0000 1.0000 -0.0000
vn 0.0000 1.0000 -0.0000
vn 0.0000 1.0000 -0.0000
vn 0.0000 1.0000 -0.0000
vn 0.0000 1.0000 -0.0000
vn 0.0000 1.0000 -0.0000
vn 0.0000 1.0000 -0.0000
vn 0.0000 1.0000 -0.0000
vn 0.0000 1.0000 -0.0000
vn 0.0000 1.0000 -0.0000
vn 0.0000 1.0000 -0.0000
vn 0.0000 1.0000 -0.0000
vn 0.0000 1.0000 -0.0000
vn 0.0000 1.0000 -0.0000
vn 0.0000 1.0000 -0.0000
vn 0.0000 1.0000 -0.0000
vn 0.0000 1.0000 -0.0000
vn 0.0000 1.0000 -0.0000
vn 0.0000 1.0000 -0.0000
vn 0.0000 1.0000 -0.0000
vn 0.0000 1.0000 -0.0000
vn 0.0000 1.0000 -0.0000
vn 0.0000 1.0000 -0.0000
vn 0.0000 1.0000 -0.0000
vn 0.0000 1.0000 -0.0000
vn 0.0000 1.0000 -0.0000
vn 0.0000 1.0000 -0.0000
vn 0.0000 1.0000 -0.0000
vn 0.0000 1.0000 -0.0000
vn 0.0000 1.0000 -0.0000
vn 0.0000 1.0000 -0.0000
vn 0.0000 1.0000 -0.0000
vn 0.0000 1.0000 -0.0000
vn 0.0000 1.0000 -0.0000
vn 0.0000 1.0000 -0.0000
vn 0.0000 1.0000 -0.0000
vn 0.0000 1.0000 -0.0000
vn 0.0000 1.0000 -0.0000
vn 0.0000 1.0000 -0.0000
vn 0.0000 1.0000 -0.0000
vn 0.0000 1.0000 -0.0000
vn 0.0000 1.0000 -0.0000
vn 0.0000 1.0000 -0.0000
vn 0.0000 1.0000 -0.0000
vn 0.0000 1.0000 -0.0000
vn 0.0000 1.0000 -0.0000
vn 0.0000 1.0000 -0.0000
vn 0.0000 1.0000 -0.0000
vn 0.0000 1.0000 -0.0000
vn 0.0000 1.0000 -0.0000
vn 0.0000 1.0000 -0.0000
vn 0.0000 1.0000 -0.0000
vn 0.0000 1.0000 -0.0000
vn 0.0000 0.0000 1.0000
vn 0.0000 0.0000 1.0000
vn 0.0000 0.0000 1.0000
vn 0.0000 0.0000 1.0000
vn 0.0000 0.0000 1.0000
vn 0.0000 0.0000 1.0000
vn 0.0000 0.0000 1.0000
vn 0.0000 0.0000 1.0000
vn 0.0000 0.0000 1.0000
vn 0.0000 0.0000 1.0000
vn 0.0000 0.0000 1.0000
vn 0.0000 0.0000 1.0000
vn 0.0000 0.0000 1.0000
vn 0.0000 0.0000 1.0000
vn 0.0000 0.0000 1.0000
vn 0.0000 0.0000 1.0000
vn 0.0000 0.0000 1.0000
vn 0.0000 0.0000 1.0000
vn 1.0000 0.0000 -0.0000
vn 1.0000 0.0000 -0.0000
vn 1.0000 0.0000 -0.0000
vn 1.0000 0.0000 -0.0000
vn 1.0000 0.0000 -0.0000
vn 1.0000 0.0000 -0.0000
vn 1.0000 0.0000 -0.0000
vn 1.0000 0.0000 -0.0000
vn 1.0000 0.0000 -0.0000
vn 1.0000 0.0000 -0.0000
vn 1.0000 0.0000 -0.0000
vn 1.0000 0.0000 -0.0000
vn 1.0000 0.0000 -0.0000
vn 1.0000 0.0000 -0.0000
vn 1.0000 0.0000 -0.0000
vn 1.0000 0.0000 -0.0000
vn 1.0000 0.0000 -0.0000
vn 1.0000 0.0000 -0.0000
vn 0.0000 0.0000 -1.0000
vn 0.0000 0.0000 -1.0000
vn 0.0000 0.0000 -1.0000
vn 0.0000 0.0000 -1.0000
vn 0.0000 0.0000 -1.0000
vn 0.0000 0.0000 -1.0000
vn 0.0000 0.0000 -1.0000
vn 0.0000 0.0000 -1.0000
vn 0.0000 0.0000 -1.0000
vn 0.0000 0.0000 -1.0000
vn 0.0000 0.0000 -1.0000
vn 0.0000 0.0000 -1.0000
vn 0.0000 0.0000 -1.0000
vn 0.0000 0.0000 -1.0000
vn 0.0000 0.0000 -1.0000
vn 0.0000 0.0000 -1.0000
vn 0.0000 0.0000 -1.0000
vn 0.0000 0.0000 -1.0000
vn -1.0000 0.0000 -0.0000
vn -1.0000 0.0000 -0.0000
vn -1.0000 0.0000 -0.0000
vn -1.0000 0.0000 -0.0000
vn -1.0000 0.0000 -0.0000
vn -1.0000 0.0000 -0.0000
vn -1.0000 0.0000 -0.0000
vn -1.0000 0.0000 -0.0000
vn -1.0000 0.0000 -0.0000
vn -1.0000 0.0000 -0.0000
vn -1.0000 0.0000 -0.0000
vn -1.0000 0.0000 -0.0000
vn -1.0000 0.0000 -0.0000
vn -1.0000 0.0000 -0.0000
vn -1.0000 0.0000 -0.0000
vn -1.0000 0.0000 -0.0000
vn -1.0000 0.0000 -0.0000
vn -1.0000 0.0000 -0.0000
# 180 vertex normals

vt 0.0000 0.0000 0.0000
vt 0.3333 0.0000 0.0000
vt 0.6667 0.0000 0.0000
vt 1.0000 0.0000 0.0000
vt 0.0000 1.0000 0.0000
vt 0.3333 1.0000 0.0000
vt 0.6667 1.0000 0.0000
vt 1.0000 1.0000 0.0000
vt 0.0000 0.0000 0.0000
vt 0.3333 0.0000 0.0000
vt 0.6667 0.0000 0.0000
vt 1.0000 0.0000 0.0000
vt 0.0000 1.0000 0.0000
vt 0.3333 1.0000 0.0000
vt 0.6667 1.0000 0.0000
vt 1.0000 1.0000 0.0000
vt 0.0000 0.0000 0.0000
vt 0.3333 0.0000 0.0000
vt 0.6667 0.0000 0.0000
vt 1.0000 0.0000 0.0000
vt 0.0000 0.3333 0.0000
vt 0.3333 0.3333 0.0000
vt 0.6667 0.3333 0.0000
vt 1.0000 0.3333 0.0000
vt 0.0000 0.6667 0.0000
vt 0.3333 0.6667 0.0000
vt 0.6667 0.6667 0.0000
vt 1.0000 0.6667 0.0000
vt 0.0000 1.0000 0.0000
vt 0.3333 1.0000 0.0000
vt 0.6667 1.0000 0.0000
vt 1.0000 1.0000 0.0000
# 32 texture coords

g Box001
usemtl wire_196088225
s 2
f 1/20/1 5/24/2 6/23/3 
f 6/23/4 2/19/5 1/20/6 
f 2/19/7 6/23/8 7/22/9 
f 7/22/10 3/18/11 2/19/12 
f 3/18/13 7/22/14 8/21/15 
f 8/21/16 4/17/17 3/18/18 
f 5/24/19 9/28/20 10/27/21 
f 10/27/22 6/23/23 5/24/24 
f 6/23/25 10/27/26 11/26/27 
f 11/26/28 7/22/29 6/23/30 
f 7/22/31 11/26/32 12/25/33 
f 12/25/34 8/21/35 7/22/36 
f 9/28/37 13/32/38 14/31/39 
f 14/31/40 10/27/41 9/28/42 
f 10/27/43 14/31/44 15/30/45 
f 15/30/46 11/26/47 10/27/48 
f 11/26/49 15/30/50 16/29/51 
f 16/29/52 12/25/53 11/26/54 
s 4
f 17/17/55 18/18/56 22/22/57 
f 22/22/58 21/21/59 17/17/60 
f 18/18/61 19/19/62 23/23/63 
f 23/23/64 22/22/65 18/18/66 
f 19/19/67 20/20/68 24/24/69 
f 24/24/70 23/23/71 19/19/72 
f 21/21/73 22/22/74 26/26/75 
f 26/26/76 25/25/77 21/21/78 
f 22/22/79 23/23/80 27/27/81 
f 27/27/82 26/26/83 22/22/84 
f 23/23/85 24/24/86 28/28/87 
f 28/28/88 27/27/89 23/23/90 
f 25/25/91 26/26/92 30/30/93 
f 30/30/94 29/29/95 25/25/96 
f 26/26/97 27/27/98 31/31/99 
f 31/31/100 30/30/101 26/26/102 
f 27/27/103 28/28/104 32/32/105 
f 32/32/106 31/31/107 27/27/108 
s 8
f 1/9/109 2/10/110 18/14/111 
f 18/14/112 17/13/113 1/9/114 
f 2/10/115 3/11/116 19/15/117 
f 19/15/118 18/14/119 2/10/120 
f 3/11/121 4/12/122 20/16/123 
f 20/16/124 19/15/125 3/11/126 
s 16
f 4/1/127 8/2/128 24/6/129 
f 24/6/130 20/5/131 4/1/132 
f 8/2/133 12/3/134 28/7/135 
f 28/7/136 24/6/137 8/2/138 
f 12/3/139 16/4/140 32/8/141 
f 32/8/142 28/7/143 12/3/144 
s 32
f 16/9/145 15/10/146 31/14/147 
f 31/14/148 32/13/149 16/9/150 
f 15/10/151 14/11/152 30/15/153 
f 30/15/154 31/14/155 15/10/156 
f 14/11/157 13/12/158 29/16/159 
f 29/16/160 30/15/161 14/11/162 
s 64
f 13/1/163 9/2/164 25/6/165 
f 25/6/166 29/5/167 13/1/168 
f 9/2/169 5/3/170 21/7/171 
f 21/7/172 25/6/173 9/2/174 
f 5/3/175 1/4/176 17/8/177 
f 17/8/178 21/7/179 5/3/180 
# 60 faces

